<?xml version="1.0" standalone="no"?> <!DOCTYPE svg PUBLIC "-//W3C//DTD SVG 1.0//EN" "http://www.w3.org/TR/2001/REC-SVG-20010904/DTD/svg10.dtd" > <svg xmlns="http://www.w3.org/2000/svg" width="100%" height="100%">
<defs >
<font id="helvetica45light" horiz-adv-x="879" ><font-face
    font-family="Helvetica 45 Light"
    units-per-em="2048"
    panose-1="2 11 5 0 0 0 0 0 0 0"
    ascent="1981"
    descent="-438"
    alphabetic="0" />
<missing-glyph horiz-adv-x="0" />
<glyph unicode=" " glyph-name="equal" horiz-adv-x="569" />
<glyph unicode="!" glyph-name="greater" horiz-adv-x="494" d="M209 365H287L317 1026V1462H178V1026L209 365ZM334 0V217H162V0H334Z" />
<glyph unicode="&quot;" glyph-name="question" horiz-adv-x="758" d="M178 965H307V1462H178V965ZM451 965H580V1462H451V965Z" />
<glyph unicode="#" glyph-name="at" horiz-adv-x="1139" d="M1018 549H803L848 868H1075V960H860L924 1415H821L758 960H469L532 1415H430L367 960H129V868H354L309 549H72V457H297L233 0H336L399 457H688L625 0H727L790 457H1018V549ZM745 868L700 549H412L457 868H745Z" />
<glyph unicode="$" glyph-name="A" horiz-adv-x="1139" d="M606 668V668Q733 643 840 582Q891 551 922 502Q950 451 950 377Q948 219 846 149Q743 78 606 78V668ZM526 813V813Q471 827 418 846Q362 864 319 891Q276 919 252 965Q225 1010 225 1079Q227 1241 315
1313Q401 1384 526 1384V813ZM59 467Q63 8 526 -29V-205H606V-31Q795 -31 934 74Q1075 178 1079 379Q1079 485 1040 559Q999 633 932 678Q899 702 862 721Q823 739 780 752Q739 768 696 776Q653 786 606 795V1384Q743 1382 827 1294Q909 1204 911 1049H1040Q1040
1253 915 1372Q790 1491 606 1493V1653H526V1493Q344 1493 223 1386Q98 1280 96 1094Q96 987 133 917Q168 848 227 803Q287 758 365 731Q440 704 526 684V78Q199 115 188 467H59Z" />
<glyph unicode="%" glyph-name="B" horiz-adv-x="1821" d="M467 1354Q594 1350 641 1255Q686 1163 684 1057Q686 954 641 862Q594 766 467 764Q342 766 295 862Q248 954 250 1057Q248 1163 295 1255Q342 1350 467 1354V1354ZM389 -70H487L1413 1485H1317L389 -70ZM1366
743Q1194 741 1118 633Q1040 526 1040 356Q1040 190 1118 82Q1194 -29 1366 -31Q1540 -29 1618 82Q1692 190 1692 356Q1692 526 1618 633Q1540 741 1366 743V743ZM1366 651Q1493 647 1540 553Q1585 461 1583 354Q1585 252 1540 160Q1493 63 1366 61Q1241 63 1194
160Q1147 252 1149 354Q1147 461 1194 553Q1241 647 1366 651V651ZM467 1446Q295 1444 219 1335Q141 1229 141 1059Q141 893 219 784Q295 674 467 672Q641 674 719 784Q793 893 793 1059Q793 1229 719 1335Q641 1444 467 1446V1446Z" />
<glyph unicode="&amp;" glyph-name="C" horiz-adv-x="1251" d="M508 729L872 287Q811 199 725 141Q637 78 526 78Q399 78 307 160Q211 236 209 367Q211 498 307 586Q399 674 508 729V729ZM952 190L1108 0H1270L1024 297Q1075 395 1094 489Q1110 584 1110 647H981Q983
496 938 401V401L618 786Q733 854 817 944Q903 1032 905 1165Q903 1302 813 1382Q721 1460 582 1462Q446 1460 354 1382Q260 1302 258 1165Q260 1063 319 977Q348 934 379 895Q410 852 438 813Q377 782 315 741Q252 698 199 643Q145 592 115 526Q80 459 80 379Q82
182 209 76Q330 -29 522 -31Q786 -25 952 190V190ZM582 1354Q664 1354 721 1307Q774 1257 776 1165Q774 1061 702 991Q672 956 631 926Q592 895 551 870V870Q500 932 446 1010Q422 1051 405 1089Q387 1128 387 1165Q387 1257 446 1307Q500 1354 582 1354V1354Z"
/>
<glyph unicode="&apos;" glyph-name="D" horiz-adv-x="569" d="M221 965H350V1462H221V965Z" />
<glyph unicode="(" glyph-name="E" horiz-adv-x="494" d="M496 -391Q240 20 233 498Q229 1049 496 1493H393Q109 1073 104 545Q109 35 393 -391H496Z" />
<glyph unicode=")" glyph-name="F" horiz-adv-x="494" d="M-2 1493Q252 1081 260 604Q262 55 -2 -391H100Q383 29 389 557Q385 1067 100 1493H-2Z" />
<glyph unicode="*" glyph-name="G" horiz-adv-x="721" d="M291 1139L141 938L207 891V891L356 1096V1096L506 891V891L571 938L424 1139L666 1218L635 1294V1294L399 1210V1210V1462H319V1210V1210L84 1294V1294L55 1218L291 1139Z" />
<glyph unicode="+" glyph-name="H" horiz-adv-x="1229" d="M561 569H100V461H561V0H670V461H1130V569H670V1030H561V569Z" />
<glyph unicode="," glyph-name="I" horiz-adv-x="569" d="M199 217V0H285Q289 -51 266 -111Q242 -170 190 -192V-281V-281Q283 -250 328 -170Q371 -94 371 -2V217H199Z" />
<glyph unicode="-" glyph-name="J" horiz-adv-x="758" d="M635 504V623H123V504H635Z" />
<glyph unicode="." glyph-name="K" horiz-adv-x="569" d="M371 0V217H199V0H371Z" />
<glyph unicode="/" glyph-name="L" horiz-adv-x="682" d="M84 -31L709 1493H604L-27 -31H84Z" />
<glyph unicode="0" glyph-name="M" horiz-adv-x="1139" d="M569 1337Q692 1335 768 1276Q805 1249 833 1208Q860 1167 879 1118Q917 1022 930 915Q940 807 940 709Q940 614 930 508Q917 399 879 301Q842 205 768 143Q692 78 569 78Q448 78 375 143Q301 205 262
301Q244 350 231 403Q219 457 213 508Q199 614 199 709Q199 807 213 915Q225 1022 262 1118Q301 1216 375 1276Q448 1335 569 1337V1337ZM569 1446Q414 1444 317 1380Q217 1315 164 1204Q111 1096 90 967Q70 836 70 707Q70 582 90 453Q111 326 164 215Q217 106
317 39Q414 -29 569 -31Q725 -29 825 39Q924 106 977 215Q1030 326 1051 453Q1069 582 1069 709Q1069 836 1051 967Q1030 1096 977 1204Q924 1315 825 1380Q725 1444 569 1446V1446Z" />
<glyph unicode="1" glyph-name="N" horiz-adv-x="1139" d="M199 1065H577V0H707V1433H602Q590 1337 557 1282Q524 1227 471 1200Q422 1175 354 1167Q285 1159 199 1157V1065Z" />
<glyph unicode="2" glyph-name="O" horiz-adv-x="1139" d="M1018 119H221Q238 192 287 254Q334 313 399 362Q465 414 532 457Q598 500 651 532Q797 623 903 745Q1010 866 1012 1042Q1010 1243 885 1345Q760 1446 567 1446Q334 1444 221 1302Q104 1163 109 938H238Q233
1104 311 1218Q387 1333 561 1337Q696 1337 788 1261Q881 1188 883 1044Q883 960 854 897Q823 833 764 774Q674 688 557 612Q440 539 334 457Q227 377 156 268Q82 160 74 0H1018V119Z" />
<glyph unicode="3" glyph-name="P" horiz-adv-x="1139" d="M68 457Q57 225 195 98Q332 -29 557 -31Q762 -31 903 84Q1046 197 1051 405Q1046 700 756 760V764Q874 795 936 879Q997 962 997 1081Q993 1272 862 1360Q729 1446 553 1446Q342 1444 223 1313Q104 1182
100 975H229Q227 1139 311 1237Q395 1335 555 1337Q688 1337 778 1274Q866 1208 868 1067Q864 932 774 870Q686 807 577 807H469V698H577Q725 698 823 625Q919 549 922 395Q919 242 811 162Q702 78 555 78Q381 78 287 184Q192 285 197 457H68Z" />
<glyph unicode="4" glyph-name="Q" horiz-adv-x="1139" d="M61 356H723V0H842V356H1057V465H842V1433H725L61 481V356ZM178 465L719 1245H723V465H178Z" />
<glyph unicode="5" glyph-name="R" horiz-adv-x="1139" d="M74 410Q84 205 213 88Q342 -29 545 -31Q756 -29 897 109Q1040 242 1042 455Q1040 678 913 813Q784 948 561 950Q477 950 397 915Q315 883 258 817L254 821L346 1296H973V1415H256L117 672H227Q344 840
547 842Q711 840 811 737Q911 633 913 469Q913 309 819 197Q723 80 555 78Q405 78 309 172Q211 260 203 410H74Z" />
<glyph unicode="6" glyph-name="S" horiz-adv-x="1139" d="M594 825Q760 823 850 717Q940 608 940 446Q938 295 846 188Q752 80 596 78Q410 80 326 188Q238 291 238 446Q238 610 332 717Q424 823 594 825V825ZM1034 1071Q981 1446 594 1446Q420 1444 317 1360Q215
1276 164 1153Q113 1032 98 917Q82 801 82 731Q82 317 203 141Q324 -33 584 -31Q801 -27 934 109Q1067 242 1069 455Q1067 672 942 801Q813 932 596 934Q473 934 373 870Q270 805 215 696H211Q211 797 227 909Q242 1020 285 1116Q328 1212 405 1276Q485 1335 606
1337Q733 1335 811 1266Q889 1194 905 1071H1034Z" />
<glyph unicode="7" glyph-name="T" horiz-adv-x="1139" d="M104 1296H897Q330 674 307 0H446Q487 502 682 829Q774 993 868 1112Q960 1229 1026 1296V1415H104V1296Z" />
<glyph unicode="8" glyph-name="U" horiz-adv-x="1139" d="M569 78Q416 78 313 162Q207 242 205 401Q207 561 315 639Q418 717 569 713Q719 717 825 639Q932 559 934 401Q932 240 827 160Q725 78 569 78V78ZM1003 1087Q999 1272 866 1360Q735 1446 567 1446Q403
1446 272 1360Q137 1272 133 1087Q135 846 367 772V768Q233 741 158 643Q80 545 76 401Q78 186 223 78Q365 -31 569 -31Q778 -31 917 78Q1061 186 1063 401Q1059 702 770 768V772Q999 846 1003 1087V1087ZM569 821Q451 817 360 881Q264 944 262 1087Q264 1210 358
1276Q448 1337 569 1337Q702 1337 788 1276Q872 1210 874 1087Q872 950 782 885Q692 817 569 821V821Z" />
<glyph unicode="9" glyph-name="V" horiz-adv-x="1139" d="M545 590Q381 592 291 702Q199 809 199 969Q199 1124 295 1229Q387 1335 543 1337Q729 1335 817 1231Q901 1126 901 969Q899 809 809 702Q715 592 545 590V590ZM104 344Q160 -31 545 -31Q723 -29 825
59Q928 143 979 264Q1030 387 1044 504Q1057 618 1057 684Q1057 1100 938 1276Q815 1448 555 1446Q340 1444 207 1309Q72 1175 70 960Q70 747 201 618Q326 483 543 481Q805 487 924 719H928Q928 623 915 512Q899 399 856 303Q813 207 737 143Q657 78 532 78Q408
78 330 154Q252 225 233 344H104Z" />
<glyph unicode=":" glyph-name="W" horiz-adv-x="569" d="M371 807V1024H199V807H371ZM371 0V217H199V0H371Z" />
<glyph unicode=";" glyph-name="X" horiz-adv-x="569" d="M199 217V0H285Q289 -51 266 -111Q242 -170 190 -192V-281V-281Q283 -250 328 -170Q371 -94 371 -2V217H199ZM371 807V1024H199V807H371Z" />
<glyph unicode="&lt;" glyph-name="Y" horiz-adv-x="1229" d="M1135 -16V96L221 518L1135 940V1053V1053L94 573V463L1135 -16V-16Z" />
<glyph unicode="=" glyph-name="Z" horiz-adv-x="1229" d="M1130 774H100V666H1130V774ZM1130 371H100V262H1130V371Z" />
<glyph unicode="&gt;" glyph-name="bracketleft" horiz-adv-x="1229" d="M94 96V-16V-16L1135 463V573L94 1053V1053V940L1008 518L94 96Z" />
<glyph unicode="?" glyph-name="backslash" horiz-adv-x="1100" d="M240 1012Q238 1175 319 1280Q403 1382 569 1384Q692 1384 776 1309Q860 1233 862 1108Q860 1028 825 965Q788 899 729 844Q602 733 547 641Q489 549 494 367H623Q625 459 633 512Q639 563 657
596Q690 651 813 766Q895 838 942 922Q989 1003 991 1114Q989 1294 870 1395Q752 1491 575 1493Q123 1481 111 1012H240ZM473 0H645V217H473V0Z" />
<glyph unicode="@" glyph-name="bracketright" horiz-adv-x="1638" d="M872 1044Q936 1042 985 987Q1032 930 1034 854Q1032 707 938 547Q891 471 829 424Q768 373 694 373Q620 373 573 428Q524 479 524 571Q524 727 620 881Q668 952 731 999Q797 1044 872 1044V1044ZM1257
1114H1149L1098 981V981Q1024 1155 881 1153Q659 1147 530 965Q397 784 395 561Q395 438 469 354Q539 266 666 264Q745 264 813 309Q879 348 926 399H930Q938 332 977 299Q1014 262 1067 262Q1247 264 1390 438Q1538 604 1542 856Q1538 1143 1345 1317Q1153 1491
848 1493Q528 1489 317 1276Q100 1065 96 737Q98 408 311 192Q520 -27 856 -31Q1053 -29 1223 68Q1393 164 1489 334H1384Q1182 66 856 61Q571 66 391 254Q207 438 205 723Q207 1014 387 1204Q561 1397 852 1401Q1096 1399 1261 1259Q1429 1120 1433 862Q1431 680
1329 522Q1282 448 1221 403Q1159 354 1087 354Q1040 354 1038 408Q1038 457 1061 524L1257 1114Z" />
<glyph unicode="A" glyph-name="asciicircum" horiz-adv-x="1290" d="M-14 0H135L311 455H977L1155 0H1304L731 1462H575L-14 0ZM647 1323V1323L930 573H354L647 1323Z" />
<glyph unicode="B" glyph-name="underscore" horiz-adv-x="1366" d="M287 702H766Q1145 700 1151 420Q1149 248 1038 182Q928 115 766 119H287V702ZM147 0H766Q942 0 1049 47Q1155 92 1206 158Q1259 223 1276 293Q1290 362 1290 416Q1284 719 981 772V776Q1096
805 1165 897Q1235 987 1235 1104Q1231 1307 1094 1386Q958 1464 766 1462H147V0ZM287 1343H766Q1094 1343 1096 1069Q1096 965 1016 895Q934 823 766 821H287V1343Z" />
<glyph unicode="C" glyph-name="grave" horiz-adv-x="1442" d="M1356 1020Q1321 1251 1153 1372Q983 1493 768 1493Q424 1487 252 1264Q78 1042 78 731Q78 422 252 203Q424 -25 768 -31Q1300 -18 1376 557H1237Q1216 358 1096 227Q973 90 768 88Q481 92 348 291Q215
481 217 731Q215 981 348 1173Q481 1368 768 1374Q932 1374 1055 1284Q1178 1190 1216 1020H1356Z" />
<glyph unicode="D" glyph-name="a" horiz-adv-x="1403" d="M287 1343H584Q1192 1366 1186 731Q1192 96 584 119H287V1343ZM147 0H653Q1321 14 1325 731Q1321 1448 653 1462H147V0Z" />
<glyph unicode="E" glyph-name="b" horiz-adv-x="1214" d="M147 0H1167V119H287V696H1102V815H287V1343H1157V1462H147V0Z" />
<glyph unicode="F" glyph-name="c" horiz-adv-x="1100" d="M147 0H287V696H987V815H287V1343H1075V1462H147V0Z" />
<glyph unicode="G" glyph-name="d" horiz-adv-x="1517" d="M1397 743H776V625H1274Q1278 391 1147 242Q1014 90 768 88Q481 92 348 291Q215 481 217 731Q215 981 348 1173Q481 1368 768 1374Q979 1370 1104 1255Q1225 1141 1239 1008H1378Q1333 1249 1169 1372Q1003
1493 768 1493Q424 1487 252 1264Q78 1042 78 731Q78 422 252 203Q424 -25 768 -31Q930 -31 1065 41Q1198 111 1274 266H1278L1296 0H1397V743Z" />
<glyph unicode="H" glyph-name="e" horiz-adv-x="1442" d="M147 0H287V709H1155V0H1294V1462H1155V827H287V1462H147V0Z" />
<glyph unicode="I" glyph-name="f" horiz-adv-x="455" d="M158 0H297V1462H158V0Z" />
<glyph unicode="J" glyph-name="g" horiz-adv-x="1024" d="M737 467Q739 268 682 178Q623 88 463 88Q356 88 299 131Q242 174 217 233Q195 297 188 358Q184 422 182 469H43Q37 270 121 125Q205 -27 451 -31Q684 -31 782 80Q879 186 876 408V1462H737V467Z" />
<glyph unicode="K" glyph-name="h" horiz-adv-x="1327" d="M147 0H287V502L567 762V762L1175 0H1356L672 858L1325 1462H1137L287 676V676V1462H147V0Z" />
<glyph unicode="L" glyph-name="i" horiz-adv-x="1100" d="M147 0H1106V119H287V1462H147V0Z" />
<glyph unicode="M" glyph-name="j" horiz-adv-x="1706" d="M143 0H283V1264H287L788 0H919L1419 1264H1423V0H1563V1462H1358L854 180V180L348 1462H143V0Z" />
<glyph unicode="N" glyph-name="k" horiz-adv-x="1442" d="M145 0H285V1237H289L1141 0H1296V1462H1157V225H1153L301 1462H145V0Z" />
<glyph unicode="O" glyph-name="l" horiz-adv-x="1517" d="M70 731Q70 422 244 203Q416 -25 760 -31Q1104 -25 1276 203Q1448 422 1448 731Q1448 1042 1276 1264Q1104 1487 760 1493Q416 1487 244 1264Q70 1042 70 731V731ZM209 731Q207 981 340 1173Q473 1368
760 1374Q1046 1368 1180 1173Q1309 981 1309 731Q1309 481 1180 291Q1046 92 760 88Q473 92 340 291Q207 481 209 731V731Z" />
<glyph unicode="P" glyph-name="m" horiz-adv-x="1290" d="M147 0H287V627H797Q1221 631 1231 1044Q1221 1456 797 1462H147V0ZM287 1343H766Q913 1343 1001 1270Q1089 1196 1092 1044Q1089 895 1001 821Q913 745 766 745H287V1343Z" />
<glyph unicode="Q" glyph-name="n" horiz-adv-x="1517" d="M1122 231L909 393V393L838 305L1030 160Q919 88 760 88Q473 92 340 291Q207 481 209 731Q207 981 340 1173Q473 1368 760 1374Q1046 1368 1180 1173Q1309 981 1309 731Q1309 588 1266 457Q1221 326 1122
231V231ZM1366 -94L1436 -8L1227 152Q1448 379 1448 731Q1448 1042 1276 1264Q1104 1487 760 1493Q416 1487 244 1264Q70 1042 70 731Q70 422 244 203Q416 -25 760 -31Q987 -29 1139 78V78L1366 -94V-94Z" />
<glyph unicode="R" glyph-name="o" horiz-adv-x="1366" d="M147 0H287V649H815Q915 653 973 618Q1030 584 1057 520Q1087 459 1098 383Q1106 305 1108 227Q1110 178 1118 115Q1124 47 1147 0H1300Q1280 29 1268 78Q1253 125 1247 178Q1237 293 1233 375Q1229 508
1173 596Q1118 684 977 704V709Q1118 739 1192 840Q1261 940 1261 1081Q1259 1280 1132 1372Q1003 1462 817 1462H147V0ZM287 1343H807Q1122 1337 1122 1053Q1120 919 1030 844Q940 768 807 768H287V1343Z" />
<glyph unicode="S" glyph-name="p" horiz-adv-x="1290" d="M74 481Q68 217 231 92Q393 -31 657 -31Q852 -29 967 23Q1079 72 1132 141Q1188 213 1204 283Q1216 348 1216 387Q1216 479 1188 543Q1159 606 1106 649Q997 735 838 772L481 860Q389 881 328 932Q262
983 260 1083Q262 1245 373 1311Q479 1374 627 1374Q788 1374 903 1292Q1016 1206 1026 1038H1165Q1161 1264 1005 1378Q850 1493 625 1493Q473 1491 375 1450Q276 1409 221 1343Q168 1278 143 1208Q121 1139 121 1081Q123 915 223 838Q270 799 328 774Q387 747
451 729L776 649Q885 627 979 567Q1022 537 1051 494Q1077 448 1077 385Q1075 305 1040 250Q1001 195 942 158Q817 88 690 88Q485 86 350 174Q215 260 213 481H74Z" />
<glyph unicode="T" glyph-name="q" horiz-adv-x="1139" d="M-10 1343H500V0H639V1343H1149V1462H-10V1343Z" />
<glyph unicode="U" glyph-name="r" horiz-adv-x="1403" d="M133 526Q131 295 266 137Q399 -27 700 -31Q1005 -27 1141 137Q1272 295 1270 526V1462H1130V557Q1120 78 700 88Q285 78 272 557V1462H133V526Z" />
<glyph unicode="V" glyph-name="s" horiz-adv-x="1214" d="M528 0H690L1233 1462H1085L614 154H610L135 1462H-14L528 0Z" />
<glyph unicode="W" glyph-name="t" horiz-adv-x="1857" d="M405 0H557L926 1309H930L1300 0H1448L1851 1462H1712L1378 182H1374L1016 1462H842L485 182H481L149 1462H0L405 0Z" />
<glyph unicode="X" glyph-name="u" horiz-adv-x="1175" d="M502 754L-25 0H133L584 645V645L1028 0H1196L668 750L1167 1462H1012L584 850V850L170 1462H6L502 754Z" />
<glyph unicode="Y" glyph-name="v" horiz-adv-x="1251" d="M555 0H694V602L1272 1462H1106L627 721V721L145 1462H-20L555 602V0Z" />
<glyph unicode="Z" glyph-name="w" horiz-adv-x="1175" d="M76 1343H973L10 123V0H1149V119H166L1128 1339V1462H76V1343Z" />
<glyph unicode="[" glyph-name="x" horiz-adv-x="494" d="M485 -391V-283H285V1384H485V1493H156V-391H485Z" />
<glyph unicode="\" glyph-name="y" horiz-adv-x="682" d="M709 -31L78 1493H-27L598 -31H709Z" />
<glyph unicode="]" glyph-name="z" horiz-adv-x="494" d="M8 1493V1384H209V-283H8V-391H338V1493H8Z" />
<glyph unicode="^" glyph-name="braceleft" horiz-adv-x="1229" d="M209 487L612 1286V1286L1022 487H1139L668 1415H561L90 487H209Z" />
<glyph unicode="_" glyph-name="bar" horiz-adv-x="1024" d="M1024 -256V-154H0V-256H1024Z" />
<glyph unicode="`" glyph-name="braceright" horiz-adv-x="379" d="M207 1204H311L96 1493H-63L207 1204Z" />
<glyph unicode="a" glyph-name="asciitilde" horiz-adv-x="1063" d="M799 410Q797 256 690 168Q584 78 430 78Q338 78 268 135Q197 190 195 287Q195 365 244 410Q289 453 360 473Q432 498 520 508Q604 520 686 530Q715 537 747 547Q780 557 795 577H799V410ZM240
733Q246 862 324 922Q399 979 522 979Q639 979 719 938Q797 891 799 762Q799 678 758 653Q715 625 633 618Q528 608 428 596Q328 582 246 549Q164 518 117 455Q66 391 66 279Q68 121 172 45Q272 -31 420 -31Q569 -29 655 27Q741 82 805 184H809Q807 100 838 51Q866
0 960 0Q1008 0 1044 8V117Q1028 109 1003 109Q928 109 928 186V747Q928 854 895 922Q860 989 805 1024Q750 1061 680 1075Q610 1087 539 1087Q356 1087 240 1003Q123 919 111 733H240Z" />
<glyph unicode="b" glyph-name="Adieresis" horiz-adv-x="1175" d="M969 528Q969 358 889 223Q807 82 623 78Q420 82 336 223Q293 289 272 369Q252 446 252 528Q250 702 336 838Q420 975 623 979Q807 975 889 838Q969 702 969 528V528ZM123 0H242V201H246Q293
92 393 33Q494 -29 623 -31Q864 -27 983 137Q1098 297 1098 528Q1098 760 983 922Q864 1083 623 1087Q502 1087 403 1030Q303 971 256 856H252V1462H123V0Z" />
<glyph unicode="c" glyph-name="Aring" horiz-adv-x="1063" d="M997 725Q975 907 858 999Q741 1087 569 1087Q326 1083 199 924Q70 764 70 528Q70 295 199 137Q326 -27 569 -31Q938 -23 1005 379H876Q862 246 778 164Q692 80 569 78Q385 82 293 219Q199 352 199
528Q199 704 293 840Q385 975 569 979Q819 975 868 725H997Z" />
<glyph unicode="d" glyph-name="Ccedilla" horiz-adv-x="1175" d="M207 528Q207 702 289 838Q371 975 553 979Q758 975 844 838Q926 702 924 528Q926 358 844 223Q758 82 553 78Q371 82 289 223Q207 358 207 528V528ZM1053 1462H924V856H919Q876 971 776 1030Q676
1087 553 1087Q313 1083 197 922Q78 760 78 528Q78 297 197 137Q313 -27 553 -31Q674 -29 780 35Q887 98 930 201H934V0H1053V1462Z" />
<glyph unicode="e" glyph-name="Eacute" horiz-adv-x="1063" d="M1012 494Q1024 727 911 903Q801 1083 547 1087Q297 1083 184 913Q70 747 70 528Q70 297 184 137Q297 -27 547 -31Q936 -25 1008 348H879Q850 227 770 154Q688 78 547 78Q365 82 283 217Q199 344
199 494H1012ZM199 602Q215 752 303 864Q389 977 547 979Q704 977 793 864Q879 756 883 602H199Z" />
<glyph unicode="f" glyph-name="Ntilde" horiz-adv-x="530" d="M530 1057H322V1149Q319 1237 340 1294Q360 1352 463 1354Q508 1354 557 1343V1454Q500 1462 448 1462Q299 1460 244 1378Q188 1294 192 1153V1057H12V948H192V0H322V948H530V1057Z" />
<glyph unicode="g" glyph-name="Odieresis" horiz-adv-x="1139" d="M547 121Q371 125 285 252Q199 375 199 541Q199 715 283 844Q365 975 547 979Q729 975 811 840Q887 707 887 541Q887 375 803 252Q717 123 547 121V121ZM1016 1057H887V874H883Q844 967 756 1026Q666
1085 547 1087Q319 1083 195 932Q70 778 70 555Q68 326 182 172Q297 14 547 12Q661 12 752 74Q840 133 883 229H887V86Q891 -309 547 -313Q436 -313 350 -264Q264 -217 238 -102H109Q129 -270 258 -346Q385 -422 547 -422Q805 -420 911 -285Q1020 -154 1016 86V1057Z"
/>
<glyph unicode="h" glyph-name="Udieresis" horiz-adv-x="1100" d="M121 0H250V616Q254 776 342 876Q426 977 582 979Q735 977 795 889Q852 801 850 659V0H979V680Q981 872 897 979Q813 1085 592 1087Q479 1087 387 1030Q293 971 254 874H250V1462H121V0Z" />
<glyph unicode="i" glyph-name="aacute" horiz-adv-x="379" d="M125 0H254V1057H125V0ZM125 1255H254V1462H125V1255Z" />
<glyph unicode="j" glyph-name="agrave" horiz-adv-x="379" d="M125 -129Q125 -195 104 -238Q82 -281 8 -283Q-27 -285 -61 -281V-387Q-16 -389 29 -391Q164 -389 211 -303Q256 -219 254 -98V1057H125V-129ZM125 1255H254V1462H125V1255Z" />
<glyph unicode="k" glyph-name="acircumflex" horiz-adv-x="1024" d="M123 0H252V401L461 575V575L879 0H1040L559 666L1010 1057H838L252 545V545V1462H123V0Z" />
<glyph unicode="l" glyph-name="adieresis" horiz-adv-x="379" d="M125 0H254V1462H125V0Z" />
<glyph unicode="m" glyph-name="atilde" horiz-adv-x="1706" d="M123 0H252V590Q254 760 328 868Q403 977 567 979Q690 977 741 903Q793 827 788 717V0H917V598Q915 752 979 864Q1040 977 1204 979Q1341 979 1399 911Q1454 844 1454 711V0H1583V717Q1581 1087
1233 1087Q1126 1087 1038 1038Q948 985 897 881V881Q885 934 856 973Q825 1014 784 1038Q702 1087 594 1087Q346 1083 248 879H242V1057H123V0Z" />
<glyph unicode="n" glyph-name="aring" horiz-adv-x="1100" d="M121 0H250V616Q254 776 342 876Q426 977 582 979Q735 977 795 889Q852 801 850 659V0H979V680Q981 872 897 979Q813 1085 592 1087Q479 1087 387 1030Q293 971 254 874H250V1057H121V0Z" />
<glyph unicode="o" glyph-name="ccedilla" horiz-adv-x="1139" d="M569 1087Q326 1083 199 924Q70 764 70 528Q70 295 199 137Q326 -27 569 -31Q813 -27 942 137Q1069 295 1069 528Q1069 764 942 924Q813 1083 569 1087V1087ZM569 979Q756 975 848 840Q940 704
940 528Q940 352 848 219Q756 82 569 78Q385 82 293 219Q199 352 199 528Q199 704 293 840Q385 975 569 979V979Z" />
<glyph unicode="p" glyph-name="eacute" horiz-adv-x="1175" d="M969 528Q969 358 889 223Q807 82 623 78Q420 82 336 223Q293 289 272 369Q252 446 252 528Q250 715 332 846Q375 909 448 944Q518 979 623 979Q807 975 889 838Q969 702 969 528V528ZM123 -391H252V201H256Q303
88 403 29Q502 -31 623 -31Q864 -27 983 137Q1098 297 1098 528Q1098 760 983 922Q864 1083 623 1087Q494 1087 393 1028Q293 965 246 856H242V1057H123V-391Z" />
<glyph unicode="q" glyph-name="egrave" horiz-adv-x="1175" d="M207 528Q207 702 289 838Q371 975 553 979Q758 975 844 838Q926 702 924 528Q926 358 844 223Q758 82 553 78Q371 82 289 223Q207 358 207 528V528ZM1053 1057H934V856H930Q911 909 872 952Q833
993 780 1024Q674 1087 553 1087Q313 1083 197 922Q78 760 78 528Q78 297 197 137Q313 -27 553 -31Q676 -31 776 29Q876 88 919 201H924V-391H1053V1057Z" />
<glyph unicode="r" glyph-name="ecircumflex" horiz-adv-x="645" d="M123 0H252V563Q254 733 362 842Q467 948 645 942V1071Q352 1073 246 809H242V1057H123V0Z" />
<glyph unicode="s" glyph-name="edieresis" horiz-adv-x="985" d="M885 747Q876 919 768 1005Q661 1087 498 1087Q352 1087 231 1020Q104 952 100 790Q102 659 186 600Q225 569 281 549Q334 526 395 508L561 471Q653 453 721 412Q756 389 774 358Q793 326 793
279Q793 223 766 186Q737 149 694 125Q602 78 504 78Q373 78 289 145Q205 213 192 342H63Q82 149 197 59Q311 -31 498 -31Q653 -31 784 43Q917 117 922 287Q919 424 827 496Q737 565 620 580L448 618Q379 635 307 674Q274 694 252 725Q229 756 229 797Q229 848
254 885Q276 919 313 940Q350 962 393 971Q436 979 479 979Q592 979 672 926Q750 868 756 747H885Z" />
<glyph unicode="t" glyph-name="iacute" horiz-adv-x="606" d="M328 1374H199V1057H14V948H199V225Q197 92 250 39Q301 -12 428 -12Q485 -8 543 -8V102Q487 96 432 96Q367 102 346 139Q326 174 328 236V948H543V1057H328V1374Z" />
<glyph unicode="u" glyph-name="igrave" horiz-adv-x="1100" d="M979 1057H850V502Q850 336 776 211Q698 80 532 78Q381 78 319 154Q254 227 250 369V1057H121V371Q113 -23 491 -31Q741 -29 856 190H860V0H979V1057Z" />
<glyph unicode="v" glyph-name="icircumflex" horiz-adv-x="948" d="M412 0H549L944 1057H811L483 129H479L147 1057H4L412 0Z" />
<glyph unicode="w" glyph-name="idieresis" horiz-adv-x="1517" d="M356 0H498L756 889H760L1020 0H1161L1501 1057H1364L1094 152H1089L831 1057H686L428 152H424L154 1057H16L356 0Z" />
<glyph unicode="x" glyph-name="ntilde" horiz-adv-x="985" d="M2 0H162L487 444V444L819 0H983L571 551L952 1057H790L496 655V655L195 1057H33L412 549L2 0Z" />
<glyph unicode="y" glyph-name="oacute" horiz-adv-x="948" d="M426 4L381 -117Q354 -190 317 -235Q281 -281 197 -283Q154 -283 109 -272V-381Q135 -391 207 -391Q326 -391 381 -342Q434 -291 485 -162L944 1057H815L489 156V156L141 1057H4L426 4Z" />
<glyph unicode="z" glyph-name="ograve" horiz-adv-x="948" d="M885 965V1057H78V948H721L31 104V0H913V109H186L885 965Z" />
<glyph unicode="{" glyph-name="ocircumflex" horiz-adv-x="682" d="M600 -391V-283H559Q498 -281 473 -217Q446 -156 446 -72V217Q448 303 432 365Q414 424 387 463Q362 504 340 524Q315 547 303 549V553Q315 559 340 582Q362 602 387 641Q414 682 432 743Q448
803 446 885V1173Q446 1259 473 1321Q498 1382 559 1384H600V1493H498Q412 1491 365 1425Q317 1356 317 1237V932Q317 870 313 813Q307 754 289 707Q274 661 246 633Q215 604 170 604V496Q258 494 289 395Q317 299 317 168V-135Q317 -254 365 -319Q412 -389 498
-391H600Z" />
<glyph unicode="|" glyph-name="odieresis" horiz-adv-x="455" d="M174 -438H283V1610H174V-438Z" />
<glyph unicode="}" glyph-name="otilde" horiz-adv-x="682" d="M82 1493V1384H123Q186 1382 213 1321Q236 1259 236 1173V885Q238 803 256 743Q272 682 297 641Q324 602 346 582Q369 559 379 553V549Q354 541 297 463Q272 424 256 365Q238 303 236 217V-72Q236
-156 213 -217Q186 -281 123 -283H82V-391H184Q270 -389 317 -319Q365 -254 365 -135V170Q362 301 395 397Q424 496 512 498V606Q424 608 395 709Q362 807 365 934V1237Q365 1356 317 1425Q270 1491 184 1493H82Z" />
<glyph unicode="~" glyph-name="uacute" horiz-adv-x="1229" d="M1014 645V645Q981 592 938 549Q895 504 833 504Q797 504 745 526Q692 547 633 571Q577 598 518 616Q457 637 397 637Q297 635 236 582Q174 528 141 461L215 387V387Q240 444 281 485Q319 526 387
528Q444 528 500 508Q555 489 606 463Q661 438 717 418Q772 395 831 395Q926 395 985 453Q1016 479 1042 510Q1067 541 1087 571L1014 645Z" />
</font>
</defs>
</svg>
